<svg width="28" height="24" viewBox="0 0 28 24" fill="none" xmlns="http://www.w3.org/2000/svg">
<path fill-rule="evenodd" clip-rule="evenodd" d="M4.13074 0.870711L4.51137 0.281879C4.61154 0.126819 4.70591 0 4.72107 0C4.82611 0 6.24777 0.935624 6.47865 1.15667C7.68804 2.31495 7.86659 4.09638 6.91884 5.54964C6.4371 6.28838 6.18329 6.9716 6.02565 7.95393C5.88361 8.83914 5.88383 11.7152 6.02603 12.4564C6.50848 14.9713 7.70085 16.5739 10.1685 18.024C10.4244 18.1744 11.151 18.5695 11.7832 18.9019C12.4154 19.2343 13.1728 19.6481 13.4663 19.8214L14 20.1364L14.5337 19.821C14.8272 19.6475 15.5969 19.2275 16.2442 18.8876C18.2447 17.8372 19.1071 17.2728 19.8974 16.4965C20.4634 15.9407 20.8327 15.446 21.19 14.7651C21.594 13.9953 21.8119 13.3311 22.0004 12.2953C22.1188 11.644 22.099 8.67592 21.9711 7.91946C21.8008 6.912 21.5945 6.37444 21.0211 5.4444C20.8737 5.20526 20.6935 4.83077 20.6206 4.61219C20.3683 3.85487 20.4617 2.7716 20.8424 2.03952C21.0248 1.6887 21.4345 1.2044 21.7554 0.960268C22.1941 0.626416 23.2446 -0.00987915 23.3007 0.0241611C23.3601 0.0601343 24.0766 1.19055 24.2325 1.49428C24.4184 1.85632 24.5641 2.49734 24.5641 2.95302C24.5641 3.86792 24.1975 4.71281 23.5095 5.38389C23.0272 5.85423 22.9882 6.02932 23.4475 5.66239C23.8069 5.37525 24.242 5.15221 24.7283 5.00601C25.0747 4.90185 26.7301 4.68397 26.7828 4.73557C26.8401 4.79189 26.9781 6.12376 26.9762 6.60403C26.9723 7.63678 26.5538 8.55173 25.765 9.25187C25.3527 9.61788 24.7023 9.9578 24.1691 10.086C23.8065 10.173 23.7688 10.1948 23.7531 10.3258C23.7324 10.4977 23.7404 10.4991 23.9726 10.3659C24.3565 10.1454 25.0106 9.97519 25.5855 9.94609C26.0334 9.92344 26.3209 9.94685 27.0633 10.0665C27.5703 10.1482 27.9909 10.2197 27.998 10.2253C28.0293 10.2503 27.6801 12.0885 27.5989 12.3263C27.427 12.8299 27.119 13.325 26.7171 13.744C25.8364 14.6623 24.8316 15.0623 23.5018 15.0239C23.0602 15.0112 22.8987 15.0242 22.8814 15.0738C22.8644 15.1229 22.9525 15.1409 23.2098 15.1409C23.6648 15.1409 24.3275 15.3071 24.8104 15.5422C25.0211 15.6448 25.4768 15.924 25.823 16.1627C26.1692 16.4014 26.4873 16.6166 26.5299 16.641C26.6476 16.7083 25.6468 18.0969 25.1406 18.5685C24.429 19.2316 23.5865 19.5885 22.6172 19.6375C21.6831 19.6848 20.9083 19.4839 20.1482 18.9971C19.7729 18.7568 19.6378 18.7176 19.6378 18.8488C19.6378 18.8766 19.6697 18.8993 19.7088 18.8993C19.8163 18.8993 20.5468 19.3548 20.8262 19.596C21.2635 19.9736 21.5903 20.4344 22.0421 21.3106C22.2852 21.7822 22.4841 22.1813 22.4841 22.1977C22.4841 22.2546 20.9488 22.9815 20.5546 23.1112C19.0182 23.6168 17.3214 23.2018 16.2032 22.0471C15.9913 21.8282 15.7513 21.5378 15.67 21.4018C15.5135 21.1398 15.4957 21.1279 15.3722 21.2046C15.3075 21.2448 15.3188 21.2851 15.4374 21.4376C15.9368 22.0799 16.2989 23.0686 16.2989 23.79V24H15.4888H14.6786L14.6201 23.6013C14.5609 23.1981 14.33 22.6459 14.1133 22.3893L14 22.255L13.8867 22.3893C13.67 22.6459 13.4391 23.1981 13.3799 23.6013L13.3214 24H12.5112H11.7011V23.79C11.7011 23.0686 12.0632 22.0799 12.5626 21.4376C12.6812 21.2851 12.6925 21.2448 12.6278 21.2046C12.5043 21.1279 12.4865 21.1398 12.33 21.4018C12.2487 21.5378 12.0088 21.8282 11.7968 22.0471C10.6788 23.2016 8.98086 23.6169 7.44545 23.1114C7.05108 22.9815 5.51589 22.2546 5.51589 22.1977C5.51589 22.1813 5.71256 21.7865 5.95296 21.3203C6.41433 20.4256 6.77515 19.9135 7.17385 19.5879C7.49499 19.3255 8.0799 18.9572 8.23656 18.9186C8.30563 18.9016 8.36217 18.8676 8.36217 18.843C8.36217 18.7212 8.22977 18.7597 7.88838 18.9804C7.12995 19.4709 6.31455 19.6847 5.38277 19.6375C4.41351 19.5885 3.57101 19.2316 2.85938 18.5685C2.35318 18.0969 1.35238 16.7083 1.47012 16.641C1.51271 16.6166 1.83078 16.4014 2.17698 16.1627C2.52319 15.924 2.97887 15.6448 3.1896 15.5422C3.67254 15.3071 4.33518 15.1409 4.79025 15.1409C5.04746 15.1409 5.13558 15.1229 5.11856 15.0738C5.10126 15.0241 4.9404 15.0114 4.49824 15.0247C3.83133 15.0448 3.24368 14.9495 2.70048 14.7329C1.67976 14.3261 0.752693 13.3558 0.401122 12.3263C0.319949 12.0886 -0.0293779 10.25 0.0019859 10.2256C0.00910161 10.2201 0.409004 10.1518 0.890683 10.0739C2.26719 9.85122 2.93415 9.89697 3.82635 10.2753L4.26331 10.4607L4.24645 10.3212C4.23129 10.1959 4.18925 10.1721 3.83089 10.086C2.20523 9.69525 1.02265 8.23012 1.02041 6.60403C1.01975 6.12322 1.16004 4.79173 1.21724 4.73557C1.2699 4.68397 2.92528 4.90185 3.27171 5.00601C3.75798 5.15221 4.19314 5.37525 4.55254 5.66239C5.01177 6.02932 4.9728 5.85423 4.49052 5.38389C3.99576 4.90137 3.7102 4.41734 3.54386 3.77938C3.28868 2.80075 3.47286 1.888 4.13074 0.870711ZM14.1982 5.33358C14.2594 5.36549 14.3119 5.4117 14.3514 5.46829L17.0583 9.33571L19.268 7.12514C19.3279 7.06505 19.4044 7.02411 19.4876 7.00751C19.5708 6.99091 19.6571 6.9994 19.7355 7.0319C19.8139 7.0644 19.8809 7.11945 19.928 7.19007C19.9751 7.26069 20.0002 7.3437 20 7.42857V13C20 13.4547 19.8194 13.8907 19.4979 14.2122C19.1764 14.5337 18.7404 14.7143 18.2857 14.7143H9.71429C9.25963 14.7143 8.82359 14.5337 8.5021 14.2122C8.18061 13.8907 8 13.4547 8 13V7.42857C7.99985 7.3437 8.0249 7.26069 8.07198 7.19007C8.11906 7.11945 8.18605 7.0644 8.26446 7.0319C8.34287 6.9994 8.42916 6.99091 8.51239 7.00751C8.59563 7.02411 8.67206 7.06505 8.732 7.12514L10.9417 9.33571L13.6486 5.46829C13.6881 5.4117 13.7406 5.36549 13.8018 5.33358C13.863 5.30168 13.931 5.28501 14 5.28501C14.069 5.28501 14.137 5.30168 14.1982 5.33358Z" fill="url(#paint0_radial_150_317)"/>
<defs>
<radialGradient id="paint0_radial_150_317" cx="0" cy="0" r="1" gradientUnits="userSpaceOnUse" gradientTransform="translate(14 12) rotate(90) scale(12 14)">
<stop stop-color="white"/>
<stop offset="1" stop-color="#999999"/>
</radialGradient>
</defs>
</svg>
