<svg width="28" height="28" viewBox="0 0 28 28" fill="none" xmlns="http://www.w3.org/2000/svg">
<path d="M14 2.80005C12.8861 2.80005 11.8178 3.24255 11.0301 4.0302C10.2425 4.81785 9.79998 5.88614 9.79998 7.00005C9.79998 8.11396 10.2425 9.18224 11.0301 9.9699C11.8178 10.7575 12.8861 11.2 14 11.2C15.1139 11.2 16.1822 10.7575 16.9698 9.9699C17.7575 9.18224 18.2 8.11396 18.2 7.00005C18.2 5.88614 17.7575 4.81785 16.9698 4.0302C16.1822 3.24255 15.1139 2.80005 14 2.80005ZM7.07418 13.9944C7.02659 14.2222 7.00278 14.4574 7.00278 14.7V19.6C7.00187 20.6164 7.22275 21.6208 7.65002 22.543C8.07728 23.4653 8.70064 24.2832 9.47659 24.9396L9.23719 25.0096C8.52678 25.2002 7.7858 25.249 7.05656 25.1531C6.32732 25.0573 5.6241 24.8187 4.98707 24.451C4.35004 24.0834 3.79167 23.5938 3.34387 23.0104C2.89606 22.4269 2.56758 21.7609 2.37719 21.0504L1.47139 17.6694C1.40004 17.403 1.38187 17.1252 1.41791 16.8518C1.45395 16.5784 1.54349 16.3147 1.68142 16.0759C1.81936 15.8371 2.00298 15.6278 2.22181 15.4599C2.44063 15.2921 2.69038 15.169 2.95679 15.0976L7.07418 13.9944ZM18.529 24.9396C19.3049 24.2832 19.9283 23.4653 20.3556 22.543C20.7828 21.6208 21.0037 20.6164 21.0028 19.6V14.7C21.0019 14.4574 20.9785 14.2222 20.9328 13.9944L25.0488 15.0976C25.5866 15.242 26.045 15.594 26.3233 16.0763C26.6016 16.5586 26.6769 17.1316 26.5328 17.6694L25.627 21.0504C25.4311 21.781 25.0893 22.4643 24.6222 23.0592C24.155 23.654 23.5722 24.1481 22.9089 24.5115C22.2456 24.875 21.5155 25.1003 20.7628 25.1739C20.01 25.2474 19.2501 25.1678 18.529 24.9396ZM23.1 5.60005C22.1717 5.60005 21.2815 5.9688 20.6251 6.62517C19.9687 7.28155 19.6 8.17179 19.6 9.10005C19.6 10.0283 19.9687 10.9185 20.6251 11.5749C21.2815 12.2313 22.1717 12.6 23.1 12.6C24.0282 12.6 24.9185 12.2313 25.5749 11.5749C26.2312 10.9185 26.6 10.0283 26.6 9.10005C26.6 8.17179 26.2312 7.28155 25.5749 6.62517C24.9185 5.9688 24.0282 5.60005 23.1 5.60005ZM4.89999 5.60005C3.97173 5.60005 3.08149 5.9688 2.42511 6.62517C1.76873 7.28155 1.39999 8.17179 1.39999 9.10005C1.39999 10.0283 1.76873 10.9185 2.42511 11.5749C3.08149 12.2313 3.97173 12.6 4.89999 12.6C5.82824 12.6 6.71848 12.2313 7.37486 11.5749C8.03124 10.9185 8.39998 10.0283 8.39998 9.10005C8.39998 8.17179 8.03124 7.28155 7.37486 6.62517C6.71848 5.9688 5.82824 5.60005 4.89999 5.60005ZM10.5 12.6C9.94303 12.6 9.40889 12.8213 9.01506 13.2151C8.62123 13.609 8.39998 14.1431 8.39998 14.7V19.6C8.39998 21.0853 8.98998 22.5096 10.0402 23.5598C11.0904 24.61 12.5148 25.2 14 25.2C15.4852 25.2 16.9096 24.61 17.9598 23.5598C19.01 22.5096 19.6 21.0853 19.6 19.6V14.7C19.6 14.1431 19.3787 13.609 18.9849 13.2151C18.5911 12.8213 18.0569 12.6 17.5 12.6H10.5Z" fill="white"/>
</svg>
