<svg width="28" height="28" viewBox="0 0 28 28" fill="none" xmlns="http://www.w3.org/2000/svg">
<path d="M25.5663 11.3517L25.0063 9.41502L23.7113 5.71669C23.4949 5.08038 23.0875 4.5263 22.5446 4.13002C21.995 3.73237 21.3331 3.5199 20.6546 3.52336H7.27298C6.59355 3.52203 5.93061 3.73259 5.37647 4.12572C4.82233 4.51885 4.40455 5.07498 4.18131 5.71669L2.86298 9.46169L2.32631 11.3517C2.31555 11.433 2.31555 11.5154 2.32631 11.5967C2.33025 12.412 2.55602 13.2108 2.9794 13.9075C3.40279 14.6043 4.00783 15.1726 4.72964 15.5517V21.1867C4.72653 21.6196 4.8095 22.0488 4.97374 22.4494C5.13797 22.85 5.38019 23.2139 5.68631 23.52C6.30758 24.134 7.14617 24.4778 8.01964 24.4767H20.013C20.4439 24.4782 20.8709 24.3945 21.2694 24.2303C21.6678 24.0661 22.0298 23.8247 22.3345 23.5199C22.6393 23.2152 22.8807 22.8532 23.0449 22.4547C23.2091 22.0563 23.2929 21.6293 23.2913 21.1984V15.5634C23.9202 15.239 24.4607 14.7665 24.8663 14.1867C25.4004 13.4333 25.686 12.5319 25.683 11.6084C25.6511 11.5198 25.612 11.434 25.5663 11.3517ZM17.528 21.1517H10.3296C10.0202 21.1517 9.72348 21.0288 9.50469 20.81C9.28589 20.5912 9.16298 20.2944 9.16298 19.985C9.16298 19.6756 9.28589 19.3789 9.50469 19.1601C9.72348 18.9413 10.0202 18.8184 10.3296 18.8184H17.528C17.8374 18.8184 18.1341 18.9413 18.3529 19.1601C18.5717 19.3789 18.6946 19.6756 18.6946 19.985C18.6946 20.2944 18.5717 20.5912 18.3529 20.81C18.1341 21.0288 17.8374 21.1517 17.528 21.1517ZM23.3613 13.16C23.0323 13.6255 22.568 13.9767 22.0313 14.1634C21.6272 14.3004 21.1963 14.339 20.7742 14.2761C20.3522 14.2132 19.9512 14.0506 19.6046 13.8017C19.2559 13.5555 18.9697 13.2309 18.7691 12.854C18.5685 12.4772 18.4591 12.0585 18.4496 11.6317C18.4496 11.3996 18.3575 11.1771 18.1934 11.013C18.0293 10.8489 17.8067 10.7567 17.5746 10.7567C17.3426 10.7567 17.12 10.8489 16.9559 11.013C16.7918 11.1771 16.6996 11.3996 16.6996 11.6317V11.69C16.691 11.9846 16.6359 12.276 16.5363 12.5534C16.3405 13.0797 15.9909 13.5349 15.533 13.86C15.0814 14.1863 14.5384 14.3618 13.9813 14.3617C13.4158 14.3628 12.8641 14.1867 12.4037 13.8582C11.9434 13.5297 11.5975 13.0652 11.4146 12.53C11.3075 12.2588 11.2521 11.97 11.2513 11.6784C11.2513 11.4463 11.1591 11.2237 10.995 11.0596C10.8309 10.8955 10.6084 10.8034 10.3763 10.8034C10.1442 10.8034 9.92169 10.8955 9.75759 11.0596C9.5935 11.2237 9.50131 11.4463 9.50131 11.6784C9.49186 12.1068 9.38253 12.5271 9.18201 12.9059C8.9815 13.2846 8.69534 13.6113 8.34631 13.86C7.88611 14.1867 7.33566 14.362 6.77131 14.3617C6.46534 14.3529 6.16247 14.2978 5.87298 14.1984C5.33955 14.0159 4.87789 13.6686 4.55464 13.2067C4.25641 12.7812 4.08636 12.2792 4.06464 11.76L4.54298 10.0334L5.83798 6.34669C5.94235 6.04634 6.1378 5.78601 6.39711 5.60199C6.65642 5.41796 6.96667 5.3194 7.28464 5.32002H20.6663C20.9813 5.32469 21.2905 5.42269 21.553 5.60002C21.8085 5.78669 21.9998 6.04686 22.1013 6.34669L23.3846 9.98669L23.8863 11.76C23.8376 12.2687 23.6476 12.7536 23.338 13.16H23.3613Z" fill="url(#paint0_radial_150_289)"/>
<defs>
<radialGradient id="paint0_radial_150_289" cx="0" cy="0" r="1" gradientUnits="userSpaceOnUse" gradientTransform="translate(14.0006 14) rotate(90) scale(10.4767 11.6824)">
<stop stop-color="white"/>
<stop offset="1" stop-color="#999999"/>
</radialGradient>
</defs>
</svg>
