<svg width="28" height="28" viewBox="0 0 28 28" fill="none" xmlns="http://www.w3.org/2000/svg">
<path d="M10.43 0.967327C10.3624 0.967327 10.2946 0.967327 10.2266 0.968968C10.1618 0.970609 10.0969 0.974218 10.0317 0.977554C9.98167 0.980124 9.93163 0.98264 9.88131 0.986085C9.79688 0.9917 9.712 0.998554 9.62669 1.00665C7.45122 1.21555 5.03267 2.23055 3.41457 3.95638C3.36459 4.0097 3.31575 4.06412 3.26763 4.1188C3.23317 4.15791 3.19872 4.19684 3.16509 4.23666C3.14578 4.25951 3.12768 4.28358 3.10876 4.30666C3.07923 4.34237 3.05025 4.37813 3.02153 4.41439C3.01782 4.41904 3.01333 4.42325 3.0095 4.42806C2.91577 4.54654 2.82574 4.66792 2.73957 4.79201C2.72972 4.80623 2.72021 4.82044 2.71047 4.83466C2.66675 4.89896 2.62404 4.96394 2.58234 5.02957C2.57867 5.03504 2.57556 5.04105 2.57195 5.04652C2.5246 5.12041 2.47847 5.19506 2.43359 5.27047C2.43337 5.27091 2.43381 5.27178 2.43359 5.27211C2.37866 5.365 2.32568 5.45903 2.27467 5.55413C2.2529 5.59482 2.23245 5.63616 2.21139 5.67718C2.19225 5.71464 2.17366 5.75232 2.15507 5.79C2.15244 5.7953 2.14905 5.80012 2.14648 5.80531C2.08339 5.93366 2.02356 6.06358 1.96705 6.19496C1.94392 6.24883 1.92221 6.30324 1.90033 6.35738C1.87512 6.41919 1.85062 6.48128 1.82683 6.54365C1.80336 6.60607 1.78058 6.66875 1.75847 6.73166C1.75825 6.73232 1.757 6.73265 1.75683 6.7333C1.73496 6.79548 1.71565 6.85717 1.69525 6.91962C1.67447 6.98334 1.65478 7.04716 1.63543 7.11103C1.61847 7.16747 1.60004 7.22369 1.58418 7.28029C1.57664 7.30698 1.57084 7.33388 1.56362 7.36068C1.54013 7.44749 1.51789 7.53464 1.4969 7.62209C1.48946 7.65337 1.48186 7.68476 1.47475 7.71615C1.47202 7.72747 1.46874 7.73884 1.46617 7.75027C1.31695 8.41733 1.24073 9.09864 1.23883 9.78219C1.23719 10.4309 1.30025 11.063 1.43199 11.6467C1.43325 11.6523 1.43407 11.658 1.43538 11.6637C1.44123 11.6894 1.44807 11.7151 1.45419 11.7406C1.46458 11.784 1.47541 11.8277 1.48662 11.8705C1.50576 11.9432 1.52687 12.015 1.54814 12.0858C1.5494 12.0898 1.55033 12.0938 1.55159 12.0979C1.57237 12.1665 1.59359 12.2343 1.61656 12.3012C1.63756 12.3625 1.66031 12.4226 1.68317 12.4823C1.68864 12.4965 1.69312 12.511 1.69859 12.525C1.71937 12.5781 1.74125 12.6305 1.76356 12.6823C1.77712 12.7137 1.79046 12.7454 1.80457 12.7763C1.82082 12.8119 1.83717 12.8474 1.85412 12.8822C1.85888 12.892 1.86473 12.9016 1.86954 12.9113C1.89935 12.9715 1.92981 13.0311 1.9618 13.089C1.99507 13.1491 2.02983 13.2084 2.06603 13.2668C2.09414 13.312 2.12373 13.3565 2.15326 13.4C2.16157 13.4123 2.16879 13.4256 2.17721 13.4378C2.21556 13.493 2.25544 13.5471 2.29682 13.6001C2.31038 13.6175 2.324 13.6343 2.33783 13.6513C2.35271 13.6697 2.36709 13.688 2.38229 13.706C2.39323 13.719 2.40526 13.7308 2.41642 13.7436C2.44048 13.7712 2.46509 13.799 2.48992 13.8257L2.51726 13.8547C2.54384 13.8825 2.57031 13.9101 2.59765 13.9367C2.62724 13.9653 2.65744 13.9932 2.68821 14.0205C2.69182 14.0237 2.69478 14.0275 2.6985 14.0308C2.71435 14.0448 2.73021 14.058 2.74635 14.0718C2.75827 14.0819 2.77003 14.0925 2.78217 14.1025C2.80415 14.1207 2.8263 14.138 2.84889 14.1555C2.87437 14.1753 2.89953 14.1946 2.92572 14.2135C2.93628 14.2212 2.9476 14.2283 2.95821 14.2358C2.9838 14.2539 3.0089 14.2733 3.0351 14.2905C3.041 14.2943 3.04795 14.2969 3.05391 14.3007C3.09219 14.3255 3.13047 14.3496 3.17012 14.3725L3.1769 14.3776L3.18374 14.3811L8.62678 17.2828C7.98514 16.4787 7.45445 15.6581 7.03401 14.8271L2.80273 12.4243C2.46985 11.7364 2.25832 10.8096 2.261 9.78563C2.26209 9.33134 2.30239 8.86196 2.38404 8.39285L5.86862 10.8332C5.84237 10.5184 5.8322 10.2032 5.83619 9.88823C5.87026 7.18912 7.01471 4.53694 9.14987 2.10029C9.3403 2.06786 9.53183 2.04221 9.72409 2.0234C10.0406 1.99299 10.3486 1.98402 10.6417 1.99441C8.15445 4.50457 6.89221 7.20471 6.85808 9.90004C6.85105 10.48 6.90028 11.0592 7.00508 11.6296L12.5679 15.5244C12.525 15.1609 12.5056 14.795 12.5097 14.4289C12.5428 11.7356 13.8489 9.09991 16.2626 6.76065L14.3896 3.24698C14.2572 2.79591 14.0172 2.41097 13.706 2.09345C13.6677 2.05429 13.6284 2.01612 13.5881 1.97899C13.5133 1.91028 13.4351 1.84527 13.3539 1.78419C13.3471 1.77911 13.3402 1.7738 13.3334 1.76888C13.2942 1.74004 13.2543 1.71211 13.2138 1.6851C13.208 1.68116 13.2025 1.6769 13.1966 1.67307C13.1551 1.64537 13.1129 1.6186 13.0702 1.59279C13.0656 1.59005 13.0611 1.58699 13.0565 1.58426C13.0116 1.55756 12.966 1.5319 12.9198 1.50731C12.9165 1.50551 12.9129 1.50392 12.9095 1.50217C12.8619 1.4768 12.8133 1.4535 12.7643 1.43031C12.7625 1.42944 12.761 1.4278 12.7591 1.42692C12.7083 1.40286 12.6575 1.38044 12.6054 1.35856C12.5416 1.33194 12.4773 1.30686 12.4123 1.28337C12.3985 1.27834 12.385 1.27276 12.3713 1.26794C12.3674 1.26658 12.3631 1.26587 12.3593 1.2645C12.3232 1.25192 12.2865 1.23869 12.2499 1.22687C12.2442 1.22507 12.2385 1.22359 12.2328 1.22179C12.1475 1.1949 12.0614 1.17039 11.9748 1.14829C11.9427 1.14009 11.9097 1.13199 11.8773 1.12434C11.8653 1.12149 11.8535 1.11859 11.8414 1.1158C11.8113 1.10891 11.7814 1.10175 11.7509 1.0953C11.7368 1.0924 11.7223 1.08966 11.7082 1.08682C11.6794 1.08102 11.65 1.07512 11.621 1.0697C11.2416 0.999483 10.8426 0.967108 10.4299 0.967163L10.43 0.967327ZM19.9951 6.19676L22.0152 14.7981L26.7764 24.6982L26.144 19.6465L26.9558 12.8363L25.4758 15.8081L23.8437 7.16572L23.8848 14.3024L19.9951 6.19676ZM16.7634 7.70242C14.635 9.83961 13.56 12.1438 13.5318 14.441C13.524 15.0759 13.5959 15.7147 13.7506 16.3533L18.023 19.3474C18.0163 19.2133 18.0129 19.0784 18.0144 18.9441C18.0344 17.1911 18.7544 15.4735 20.0805 13.9232L16.7635 7.70248L16.7634 7.70242ZM20.5984 14.8972C19.5687 16.205 19.052 17.5831 19.0364 18.9561C19.032 19.3473 19.0693 19.74 19.1475 20.1335L22.4681 22.4594C22.5089 21.5696 22.7774 20.6945 23.2508 19.8721L20.5984 14.8972ZM8.8253 15.844C9.51874 16.8454 10.3999 17.8343 11.4793 18.8022L14.6801 20.5095C14.1728 19.836 13.7539 19.1494 13.4241 18.4536L8.82519 15.8439L8.8253 15.844ZM2.98894 17.3906L5.54049 20.3489L9.4711 21.1145L2.98905 17.3906H2.98894ZM8.09019 18.7852L16.2011 24.2386L8.09025 23.4183L16.0063 25.3989L13.1147 26.4841L19.4037 26.2074L24.9768 26.9047L8.09019 18.7852ZM15.1672 19.4431C15.7533 20.2989 16.502 21.1437 17.4214 21.9707L19.2055 22.9209C18.8686 22.3848 18.6035 21.8374 18.4091 21.2837L15.1672 19.4431L15.1672 19.4431ZM23.8403 20.9778C23.609 21.5307 23.4903 22.0944 23.4848 22.6578C23.4742 23.7335 23.8685 24.8286 24.7443 25.874L25.6432 26.3525L27.1232 27.1421L26.3353 25.6604L23.8402 20.9778L23.8403 20.9778ZM19.9233 22.1433C20.3213 22.8275 20.8574 23.5049 21.5417 24.1667L22.943 24.9136C22.7577 24.4934 22.6265 24.0651 22.5484 23.6335L19.9233 22.1433Z" fill="url(#paint0_radial_150_315)"/>
<defs>
<radialGradient id="paint0_radial_150_315" cx="0" cy="0" r="1" gradientUnits="userSpaceOnUse" gradientTransform="translate(14.181 14.0546) rotate(90) scale(13.0875 12.9422)">
<stop stop-color="white"/>
<stop offset="1" stop-color="#999999"/>
</radialGradient>
</defs>
</svg>
